<svg xmlns="http://www.w3.org/2000/svg" version="1.1" xmlns:xlink="http://www.w3.org/1999/xlink" xmlns:svgjs="http://svgjs.dev/svgjs" width="1440" height="560" preserveAspectRatio="none" viewBox="0 0 1440 560"><g mask="url(&quot;#SvgjsMask1002&quot;)" fill="none"><rect width="1440" height="560" x="0" y="0" fill="#0e2a47"></rect><path d="M0 348.93L10 293.4L20 255.69L30 258.11L40 257.36L50 315.89L60 258.73L70 239.92L80 276.86L90 295.16L100 295.82L110 318.28L120 376.25L130 432.66L140 381.06L150 450.26L160 436.26L170 398.19L180 400.89L190 396.44L200 360.43L210 364.6L220 329.97L230 361.85L240 424L250 471.17L260 403.33L270 346.53L280 386L290 443.47L300 407.33L310 475.78L320 429.1L330 378.49L340 409.52L350 352.56L360 374.05L370 317.7L380 354.2L390 399.75L400 430.62L410 385.04L420 342.65L430 324.55L440 373.25L450 404.59L460 349.82L470 286.95L480 250.8L490 256.17L500 249.14L510 240.58L520 263.49L530 302.95L540 240.95L550 303.95L560 246.8L570 269.88L580 331.48L590 338.41L600 385.61L610 330.19L620 399.69L630 420.95L640 355.2L650 373.76L660 441.31L670 424.35L680 458.61L690 449.27L700 481.96L710 500.52L720 462.24L730 532.19L740 472.96L750 520.61L760 549.05L770 490.93L780 481.4L790 520.95L800 502.73L810 555.63L820 557.01L830 541.78L840 525.64L850 540.86L860 540.12L870 526.72L880 523.62L890 511.61L900 525.99L910 507.22L920 454.75L930 464.05L940 425.66L950 361.22L960 341.85L970 407.72L980 458.89L990 395.36L1000 358.4L1010 352.17L1020 362.03L1030 315.33L1040 318.33L1050 271.77L1060 266.08L1070 308.78L1080 368.73L1090 302.87L1100 234.31L1110 165.11L1120 174.51L1130 186.29L1140 204.13L1150 205.68L1160 214.31L1170 241.49L1180 268.71L1190 251.81L1200 194.37L1210 217.54L1220 210.35L1230 238.89L1240 212.48L1250 166.58L1260 179.71L1270 117.36L1280 155.76L1290 118.49L1300 147.07L1310 77.88L1320 20.98L1330 86.97L1340 69.33L1350 41.43L1360 24.51L1370 24.82L1380 8.59L1390 11.55L1400 80.49L1410 19.64L1420 20.58L1430 77.78L1440 145.97" stroke="#224b75" stroke-width="2"></path><path d="M0 348.93L10 293.4L20 255.69L30 258.11L40 257.36L50 315.89L60 258.73L70 239.92L80 276.86L90 295.16L100 295.82L110 318.28L120 376.25L130 432.66L140 381.06L150 450.26L160 436.26L170 398.19L180 400.89L190 396.44L200 360.43L210 364.6L220 329.97L230 361.85L240 424L250 471.17L260 403.33L270 346.53L280 386L290 443.47L300 407.33L310 475.78L320 429.1L330 378.49L340 409.52L350 352.56L360 374.05L370 317.7L380 354.2L390 399.75L400 430.62L410 385.04L420 342.65L430 324.55L440 373.25L450 404.59L460 349.82L470 286.95L480 250.8L490 256.17L500 249.14L510 240.58L520 263.49L530 302.95L540 240.95L550 303.95L560 246.8L570 269.88L580 331.48L590 338.41L600 385.61L610 330.19L620 399.69L630 420.95L640 355.2L650 373.76L660 441.31L670 424.35L680 458.61L690 449.27L700 481.96L710 500.52L720 462.24L730 532.19L740 472.96L750 520.61L760 549.05L770 490.93L780 481.4L790 520.95L800 502.73L810 555.63L820 557.01L830 541.78L840 525.64L850 540.86L860 540.12L870 526.72L880 523.62L890 511.61L900 525.99L910 507.22L920 454.75L930 464.05L940 425.66L950 361.22L960 341.85L970 407.72L980 458.89L990 395.36L1000 358.4L1010 352.17L1020 362.03L1030 315.33L1040 318.33L1050 271.77L1060 266.08L1070 308.78L1080 368.73L1090 302.87L1100 234.31L1110 165.11L1120 174.51L1130 186.29L1140 204.13L1150 205.68L1160 214.31L1170 241.49L1180 268.71L1190 251.81L1200 194.37L1210 217.54L1220 210.35L1230 238.89L1240 212.48L1250 166.58L1260 179.71L1270 117.36L1280 155.76L1290 118.49L1300 147.07L1310 77.88L1320 20.98L1330 86.97L1340 69.33L1350 41.43L1360 24.51L1370 24.82L1380 8.59L1390 11.55L1400 80.49L1410 19.64L1420 20.58L1430 77.78L1440 145.97L1440 560L0 560z" fill="url(&quot;#SvgjsLinearGradient1003&quot;)"></path></g><defs><mask id="SvgjsMask1002"><rect width="1440" height="560" fill="#ffffff"></rect></mask><linearGradient x1="50%" y1="0%" x2="50%" y2="100%" id="SvgjsLinearGradient1003"><stop stop-opacity="0.65" stop-color="#224b75" offset="0"></stop><stop stop-opacity="0" stop-color="#508dcc" offset="0.8"></stop></linearGradient></defs></svg>